<?xml version="1.0" encoding="UTF-8"?>
<svg version="1.1" xmlns="http://www.w3.org/2000/svg" width="512" height="342">
<path d="M0 0 C168.96 0 337.92 0 512 0 C512 112.86 512 225.72 512 342 C343.04 342 174.08 342 0 342 C0 229.14 0 116.28 0 0 Z " fill="#029247" transform="translate(0,0)"/>
<path d="M0 0 C56.1 0 112.2 0 170 0 C170 112.53 170 225.06 170 341 C113.9 341 57.8 341 0 341 C0 228.47 0 115.94 0 0 Z " fill="#CE2B37" transform="translate(342,0)"/>
<path d="M0 0 C56.1 0 112.2 0 170 0 C170 112.53 170 225.06 170 341 C113.9 341 57.8 341 0 341 C0 228.47 0 115.94 0 0 Z " fill="#FFFFFF" transform="translate(171,0)"/>
</svg>
